<?xml version="1.0" standalone="no"?>
<!DOCTYPE svg PUBLIC "-//W3C//DTD SVG 20010904//EN"
 "http://www.w3.org/TR/2001/REC-SVG-20010904/DTD/svg10.dtd">
<svg version="1.0" xmlns="http://www.w3.org/2000/svg"
 width="16.000000pt" height="16.000000pt" viewBox="0 0 16.000000 16.000000"
 preserveAspectRatio="xMidYMid meet">
<metadata>
Created by potrace 1.11, written by Peter Selinger 2001-2013
</metadata>
<g transform="translate(0.000000,16.000000) scale(0.012500,-0.012500)"
fill="#000000" stroke="none">
<path d="M0 1038 l0 -243 80 80 81 80 -78 3 -77 3 155 155 154 154 5 -75 5
-76 80 81 80 80 -243 0 -242 0 0 -242z"/>
<path d="M875 1200 l80 -81 3 78 3 77 155 -155 154 -154 -75 -5 -76 -5 81 -80
80 -80 0 243 0 242 -242 0 -243 0 80 -80z"/>
<path d="M366 878 c20 -40 37 -74 38 -75 1 -2 19 15 40 36 l39 39 -71 36 c-40
20 -74 36 -77 36 -3 0 11 -33 31 -72z"/>
<path d="M556 913 l-68 -35 33 -34 c18 -19 36 -34 39 -34 7 0 73 131 68 135
-2 2 -34 -13 -72 -32z"/>
<path d="M686 878 c20 -40 37 -74 38 -75 1 -2 19 15 40 36 l39 39 -71 36 c-40
20 -74 36 -77 36 -3 0 11 -33 31 -72z"/>
<path d="M876 913 l-68 -35 33 -34 c18 -19 36 -34 39 -34 7 0 73 131 68 135
-2 2 -34 -13 -72 -32z"/>
<path d="M366 721 c-20 -39 -34 -71 -31 -71 10 0 135 65 135 70 0 3 -15 21
-34 39 l-35 33 -35 -71z"/>
<path d="M520 755 c-18 -19 -32 -36 -29 -39 12 -11 132 -67 135 -63 6 6 -58
137 -66 137 -3 0 -21 -16 -40 -35z"/>
<path d="M686 721 c-20 -39 -34 -71 -31 -71 10 0 135 65 135 70 0 3 -15 21
-34 39 l-35 33 -35 -71z"/>
<path d="M840 755 c-18 -19 -32 -36 -29 -39 12 -11 132 -67 135 -63 6 6 -58
137 -66 137 -3 0 -21 -16 -40 -35z"/>
<path d="M366 558 c20 -40 37 -74 38 -75 1 -2 19 15 40 36 l39 39 -71 36 c-40
20 -74 36 -77 36 -3 0 11 -33 31 -72z"/>
<path d="M556 593 l-68 -35 33 -34 c18 -19 36 -34 39 -34 7 0 73 131 68 135
-2 2 -34 -13 -72 -32z"/>
<path d="M686 558 c20 -40 37 -74 38 -75 1 -2 19 15 40 36 l39 39 -71 36 c-40
20 -74 36 -77 36 -3 0 11 -33 31 -72z"/>
<path d="M876 593 l-68 -35 33 -34 c18 -19 36 -34 39 -34 7 0 73 131 68 135
-2 2 -34 -13 -72 -32z"/>
<path d="M0 242 l0 -242 242 0 243 0 -80 80 -80 81 -5 -76 -5 -75 -154 154
-155 155 77 3 78 3 -81 80 -80 80 0 -243z"/>
<path d="M366 401 c-20 -39 -34 -71 -31 -71 10 0 135 65 135 70 0 3 -15 21
-34 39 l-35 33 -35 -71z"/>
<path d="M520 435 c-18 -19 -32 -36 -29 -39 12 -11 132 -67 135 -63 6 6 -58
137 -66 137 -3 0 -21 -16 -40 -35z"/>
<path d="M686 401 c-20 -39 -34 -71 -31 -71 10 0 135 65 135 70 0 3 -15 21
-34 39 l-35 33 -35 -71z"/>
<path d="M840 435 c-18 -19 -32 -36 -29 -39 12 -11 132 -67 135 -63 6 6 -58
137 -66 137 -3 0 -21 -16 -40 -35z"/>
<path d="M1200 395 l-74 -75 77 0 77 0 0 75 c0 41 -1 75 -3 75 -1 0 -36 -34
-77 -75z"/>
<path d="M1120 155 l-155 -155 158 0 157 0 0 155 c0 85 -1 155 -3 155 -1 0
-72 -70 -157 -155z"/>
<path d="M880 75 l-74 -75 77 0 77 0 0 75 c0 41 -1 75 -3 75 -1 0 -36 -34 -77
-75z"/>
</g>
</svg>
